<mxfile host="www.draw.io" modified="2019-11-09T06:31:07.474Z" agent="Mozilla/5.0 (Macintosh; Intel Mac OS X 10_14_6) AppleWebKit/537.36 (KHTML, like Gecko) Chrome/78.0.3904.87 Safari/537.36" etag="3JYHHd-s-pnRWWglHtUD" version="12.2.3" type="github" pages="3">
  <diagram id="6sgNvkMDt1J69qBBuPZ8" name="功能性用例">
    <mxGraphModel dx="1426" dy="721" grid="1" gridSize="10" guides="1" tooltips="1" connect="1" arrows="1" fold="1" page="1" pageScale="1" pageWidth="827" pageHeight="1169" math="0" shadow="0">
      <root>
        <mxCell id="0"/>
        <mxCell id="1" parent="0"/>
        <mxCell id="U9tkg_d3OC-HoSX7uftF-7" style="rounded=0;orthogonalLoop=1;jettySize=auto;html=1;exitX=1;exitY=0.5;exitDx=0;exitDy=0;entryX=0;entryY=0.5;entryDx=0;entryDy=0;endArrow=none;endFill=0;" edge="1" parent="1" source="U9tkg_d3OC-HoSX7uftF-1" target="U9tkg_d3OC-HoSX7uftF-2">
          <mxGeometry relative="1" as="geometry"/>
        </mxCell>
        <mxCell id="U9tkg_d3OC-HoSX7uftF-8" style="edgeStyle=none;rounded=0;orthogonalLoop=1;jettySize=auto;html=1;exitX=1;exitY=0.5;exitDx=0;exitDy=0;entryX=0;entryY=0.5;entryDx=0;entryDy=0;endArrow=none;endFill=0;" edge="1" parent="1" source="U9tkg_d3OC-HoSX7uftF-1" target="U9tkg_d3OC-HoSX7uftF-4">
          <mxGeometry relative="1" as="geometry"/>
        </mxCell>
        <mxCell id="U9tkg_d3OC-HoSX7uftF-9" style="edgeStyle=none;rounded=0;orthogonalLoop=1;jettySize=auto;html=1;exitX=1;exitY=0.5;exitDx=0;exitDy=0;entryX=0;entryY=0.5;entryDx=0;entryDy=0;endArrow=none;endFill=0;" edge="1" parent="1" source="U9tkg_d3OC-HoSX7uftF-1" target="U9tkg_d3OC-HoSX7uftF-5">
          <mxGeometry relative="1" as="geometry"/>
        </mxCell>
        <mxCell id="U9tkg_d3OC-HoSX7uftF-10" style="edgeStyle=none;rounded=0;orthogonalLoop=1;jettySize=auto;html=1;exitX=1;exitY=0.5;exitDx=0;exitDy=0;entryX=0;entryY=0.5;entryDx=0;entryDy=0;endArrow=none;endFill=0;" edge="1" parent="1" source="U9tkg_d3OC-HoSX7uftF-1" target="U9tkg_d3OC-HoSX7uftF-6">
          <mxGeometry relative="1" as="geometry"/>
        </mxCell>
        <mxCell id="U9tkg_d3OC-HoSX7uftF-13" style="edgeStyle=none;rounded=0;orthogonalLoop=1;jettySize=auto;html=1;exitX=1;exitY=0.5;exitDx=0;exitDy=0;entryX=0;entryY=0.5;entryDx=0;entryDy=0;endArrow=none;endFill=0;" edge="1" parent="1" source="U9tkg_d3OC-HoSX7uftF-1" target="U9tkg_d3OC-HoSX7uftF-11">
          <mxGeometry relative="1" as="geometry"/>
        </mxCell>
        <mxCell id="U9tkg_d3OC-HoSX7uftF-14" style="edgeStyle=none;rounded=0;orthogonalLoop=1;jettySize=auto;html=1;exitX=1;exitY=0.5;exitDx=0;exitDy=0;entryX=0;entryY=0.5;entryDx=0;entryDy=0;endArrow=none;endFill=0;" edge="1" parent="1" source="U9tkg_d3OC-HoSX7uftF-1" target="U9tkg_d3OC-HoSX7uftF-12">
          <mxGeometry relative="1" as="geometry"/>
        </mxCell>
        <mxCell id="U9tkg_d3OC-HoSX7uftF-1" value="&lt;font style=&quot;font-size: 16px&quot;&gt;ENOW&lt;/font&gt;" style="rounded=1;whiteSpace=wrap;html=1;" vertex="1" parent="1">
          <mxGeometry x="280" y="460" width="120" height="60" as="geometry"/>
        </mxCell>
        <mxCell id="U9tkg_d3OC-HoSX7uftF-2" value="&lt;font style=&quot;font-size: 16px&quot;&gt;预览与交互&lt;/font&gt;" style="ellipse;whiteSpace=wrap;html=1;" vertex="1" parent="1">
          <mxGeometry x="460" y="230" width="120" height="80" as="geometry"/>
        </mxCell>
        <mxCell id="U9tkg_d3OC-HoSX7uftF-4" value="&lt;font style=&quot;font-size: 16px&quot;&gt;直播&lt;/font&gt;" style="ellipse;whiteSpace=wrap;html=1;" vertex="1" parent="1">
          <mxGeometry x="460" y="320" width="120" height="80" as="geometry"/>
        </mxCell>
        <mxCell id="U9tkg_d3OC-HoSX7uftF-5" value="&lt;font style=&quot;font-size: 16px&quot;&gt;多端实时互动&lt;/font&gt;" style="ellipse;whiteSpace=wrap;html=1;" vertex="1" parent="1">
          <mxGeometry x="460" y="410" width="120" height="80" as="geometry"/>
        </mxCell>
        <mxCell id="U9tkg_d3OC-HoSX7uftF-6" value="&lt;font style=&quot;font-size: 16px&quot;&gt;录制播放&lt;/font&gt;" style="ellipse;whiteSpace=wrap;html=1;" vertex="1" parent="1">
          <mxGeometry x="460" y="500" width="120" height="80" as="geometry"/>
        </mxCell>
        <mxCell id="U9tkg_d3OC-HoSX7uftF-11" value="&lt;font style=&quot;font-size: 16px&quot;&gt;内容生成&lt;/font&gt;" style="ellipse;whiteSpace=wrap;html=1;" vertex="1" parent="1">
          <mxGeometry x="460" y="700" width="120" height="80" as="geometry"/>
        </mxCell>
        <mxCell id="U9tkg_d3OC-HoSX7uftF-12" value="&lt;font style=&quot;font-size: 16px&quot;&gt;内容分发&lt;/font&gt;" style="ellipse;whiteSpace=wrap;html=1;" vertex="1" parent="1">
          <mxGeometry x="460" y="600" width="120" height="80" as="geometry"/>
        </mxCell>
      </root>
    </mxGraphModel>
  </diagram>
  <diagram id="dgGJu8wgzpvuOsr2DJ4M" name="非功能性需求">
    <mxGraphModel dx="1426" dy="721" grid="1" gridSize="10" guides="1" tooltips="1" connect="1" arrows="1" fold="1" page="1" pageScale="1" pageWidth="827" pageHeight="1169" math="0" shadow="0">
      <root>
        <mxCell id="HSS_YQ8-oQcD5lP-z7LL-0"/>
        <mxCell id="HSS_YQ8-oQcD5lP-z7LL-1" parent="HSS_YQ8-oQcD5lP-z7LL-0"/>
        <mxCell id="-zHQD06CwSwB12iHMDuW-3" style="edgeStyle=none;rounded=0;orthogonalLoop=1;jettySize=auto;html=1;exitX=1;exitY=0.5;exitDx=0;exitDy=0;entryX=0;entryY=0.5;entryDx=0;entryDy=0;endArrow=none;endFill=0;" edge="1" parent="HSS_YQ8-oQcD5lP-z7LL-1" source="-zHQD06CwSwB12iHMDuW-0" target="-zHQD06CwSwB12iHMDuW-1">
          <mxGeometry relative="1" as="geometry"/>
        </mxCell>
        <mxCell id="-zHQD06CwSwB12iHMDuW-4" style="edgeStyle=none;rounded=0;orthogonalLoop=1;jettySize=auto;html=1;exitX=1;exitY=0.5;exitDx=0;exitDy=0;entryX=0;entryY=0.5;entryDx=0;entryDy=0;endArrow=none;endFill=0;" edge="1" parent="HSS_YQ8-oQcD5lP-z7LL-1" source="-zHQD06CwSwB12iHMDuW-0" target="-zHQD06CwSwB12iHMDuW-2">
          <mxGeometry relative="1" as="geometry"/>
        </mxCell>
        <mxCell id="-zHQD06CwSwB12iHMDuW-6" style="edgeStyle=none;rounded=0;orthogonalLoop=1;jettySize=auto;html=1;exitX=1;exitY=0.5;exitDx=0;exitDy=0;entryX=0;entryY=0.5;entryDx=0;entryDy=0;endArrow=none;endFill=0;" edge="1" parent="HSS_YQ8-oQcD5lP-z7LL-1" source="-zHQD06CwSwB12iHMDuW-0" target="-zHQD06CwSwB12iHMDuW-5">
          <mxGeometry relative="1" as="geometry"/>
        </mxCell>
        <mxCell id="-zHQD06CwSwB12iHMDuW-0" value="&lt;font style=&quot;font-size: 16px&quot;&gt;ENOW&lt;/font&gt;" style="rounded=1;whiteSpace=wrap;html=1;" vertex="1" parent="HSS_YQ8-oQcD5lP-z7LL-1">
          <mxGeometry x="280" y="420" width="120" height="60" as="geometry"/>
        </mxCell>
        <mxCell id="-zHQD06CwSwB12iHMDuW-1" value="&lt;font style=&quot;font-size: 16px&quot;&gt;灵活性: 多场景&lt;/font&gt;" style="ellipse;whiteSpace=wrap;html=1;" vertex="1" parent="HSS_YQ8-oQcD5lP-z7LL-1">
          <mxGeometry x="440" y="310" width="160" height="80" as="geometry"/>
        </mxCell>
        <mxCell id="-zHQD06CwSwB12iHMDuW-2" value="&lt;span style=&quot;font-size: 16px&quot;&gt;拓展性: 多元素&lt;/span&gt;" style="ellipse;whiteSpace=wrap;html=1;" vertex="1" parent="HSS_YQ8-oQcD5lP-z7LL-1">
          <mxGeometry x="440" y="410" width="160" height="80" as="geometry"/>
        </mxCell>
        <mxCell id="-zHQD06CwSwB12iHMDuW-5" value="&lt;font style=&quot;font-size: 16px&quot;&gt;独立性: 稳定 易测&lt;/font&gt;" style="ellipse;whiteSpace=wrap;html=1;" vertex="1" parent="HSS_YQ8-oQcD5lP-z7LL-1">
          <mxGeometry x="440" y="510" width="160" height="80" as="geometry"/>
        </mxCell>
      </root>
    </mxGraphModel>
  </diagram>
  <diagram id="f134R0KtULuWxZXx7O5B" name="Page-3">
    <mxGraphModel dx="1426" dy="721" grid="1" gridSize="10" guides="1" tooltips="1" connect="1" arrows="1" fold="1" page="1" pageScale="1" pageWidth="827" pageHeight="1169" math="0" shadow="0">
      <root>
        <mxCell id="jHg1b0M5qu7M9l_cZofC-0"/>
        <mxCell id="jHg1b0M5qu7M9l_cZofC-1" parent="jHg1b0M5qu7M9l_cZofC-0"/>
      </root>
    </mxGraphModel>
  </diagram>
</mxfile>
